<mxfile host="app.diagrams.net" modified="2020-12-19T15:42:03.045Z" agent="5.0 (Windows NT 6.1; Win64; x64) AppleWebKit/537.36 (KHTML, like Gecko) Chrome/87.0.4280.88 Safari/537.36" etag="d17L9Q5iKXfWwZ4eUkTN" version="14.1.1" type="github">
  <diagram id="SIsZvFy45aXnX-BMXcz8" name="Page-1">
    <mxGraphModel dx="3491" dy="3308" grid="1" gridSize="10" guides="1" tooltips="1" connect="1" arrows="1" fold="1" page="1" pageScale="1" pageWidth="827" pageHeight="1169" math="0" shadow="0">
      <root>
        <mxCell id="0" />
        <mxCell id="1" parent="0" />
        <mxCell id="pTYEqp93y5SNzYrnJhAv-175" value="" style="rounded=0;whiteSpace=wrap;html=1;fillColor=#ffffff;gradientColor=none;" parent="1" vertex="1">
          <mxGeometry x="-1160" y="-2280" width="1360" height="1330" as="geometry" />
        </mxCell>
        <mxCell id="pTYEqp93y5SNzYrnJhAv-173" style="edgeStyle=orthogonalEdgeStyle;rounded=0;orthogonalLoop=1;jettySize=auto;html=1;startArrow=none;startFill=0;endArrow=classic;endFill=1;entryX=-0.039;entryY=0.521;entryDx=0;entryDy=0;entryPerimeter=0;" parent="1" source="kPTJGmgoszfXjRoP_3Vx-1" target="pTYEqp93y5SNzYrnJhAv-170" edge="1">
          <mxGeometry relative="1" as="geometry">
            <mxPoint x="-1110.06" y="-2140" as="targetPoint" />
            <Array as="points">
              <mxPoint x="-1010.06" y="-1970" />
              <mxPoint x="-1110.06" y="-1970" />
              <mxPoint x="-1110.06" y="-2109" />
            </Array>
          </mxGeometry>
        </mxCell>
        <mxCell id="kPTJGmgoszfXjRoP_3Vx-1" value="&lt;p style=&quot;box-sizing: border-box ; margin: 0px ; padding: 0px ; font-family: &amp;#34;helvetica neue&amp;#34; , &amp;#34;helvetica&amp;#34; , &amp;#34;pingfang sc&amp;#34; , &amp;#34;hiragino sans gb&amp;#34; , &amp;#34;microsoft yahei&amp;#34; , &amp;#34;\5 fae8f6f96c59ed1&amp;#34; , &amp;#34;arial&amp;#34; , sans-serif ; font-size: 16px ; line-height: 1.2&quot;&gt;&lt;span style=&quot;box-sizing: border-box ; color: rgb(25 , 25 , 25) ; font-size: 10pt&quot;&gt;UDP广播IP、ID&lt;/span&gt;&lt;/p&gt;&lt;p style=&quot;box-sizing: border-box ; margin: 0px ; padding: 0px ; font-family: &amp;#34;helvetica neue&amp;#34; , &amp;#34;helvetica&amp;#34; , &amp;#34;pingfang sc&amp;#34; , &amp;#34;hiragino sans gb&amp;#34; , &amp;#34;microsoft yahei&amp;#34; , &amp;#34;\5 fae8f6f96c59ed1&amp;#34; , &amp;#34;arial&amp;#34; , sans-serif ; font-size: 16px ; line-height: 1.2&quot;&gt;&lt;span style=&quot;box-sizing: border-box ; color: rgb(25 , 25 , 25) ; font-size: 10pt&quot;&gt;端口：57721&lt;/span&gt;&lt;/p&gt;" style="rounded=1;whiteSpace=wrap;html=1;" parent="1" vertex="1">
          <mxGeometry x="-1070.06" y="-2060" width="120" height="60" as="geometry" />
        </mxCell>
        <mxCell id="pTYEqp93y5SNzYrnJhAv-171" style="edgeStyle=orthogonalEdgeStyle;rounded=0;orthogonalLoop=1;jettySize=auto;html=1;entryX=0.5;entryY=0;entryDx=0;entryDy=0;startArrow=none;startFill=0;endArrow=classic;endFill=1;" parent="1" target="pTYEqp93y5SNzYrnJhAv-170" edge="1">
          <mxGeometry relative="1" as="geometry">
            <mxPoint x="-1010.0999999999999" y="-2160" as="sourcePoint" />
          </mxGeometry>
        </mxCell>
        <mxCell id="pTYEqp93y5SNzYrnJhAv-2" value="&lt;span style=&quot;color: rgb(25 , 25 , 25) ; font-size: 13.3333px&quot;&gt;开机&lt;/span&gt;" style="rounded=0;whiteSpace=wrap;html=1;fillColor=#ffffff;gradientColor=none;" parent="1" vertex="1">
          <mxGeometry x="-1160" y="-2270" width="1360" height="40" as="geometry" />
        </mxCell>
        <mxCell id="pTYEqp93y5SNzYrnJhAv-177" style="edgeStyle=orthogonalEdgeStyle;rounded=0;orthogonalLoop=1;jettySize=auto;html=1;entryX=0.5;entryY=0;entryDx=0;entryDy=0;startArrow=none;startFill=0;endArrow=classic;endFill=1;" parent="1" source="pTYEqp93y5SNzYrnJhAv-3" target="pTYEqp93y5SNzYrnJhAv-5" edge="1">
          <mxGeometry relative="1" as="geometry" />
        </mxCell>
        <mxCell id="pTYEqp93y5SNzYrnJhAv-3" value="&lt;p style=&quot;box-sizing: border-box ; margin: 0px ; padding: 0px ; font-family: &amp;#34;helvetica neue&amp;#34; , &amp;#34;helvetica&amp;#34; , &amp;#34;pingfang sc&amp;#34; , &amp;#34;hiragino sans gb&amp;#34; , &amp;#34;microsoft yahei&amp;#34; , &amp;#34;\5 fae8f6f96c59ed1&amp;#34; , &amp;#34;arial&amp;#34; , sans-serif ; line-height: 1.2&quot;&gt;&lt;font color=&quot;#191919&quot;&gt;&lt;span style=&quot;font-size: 13.3333px&quot;&gt;读取网络配置&lt;/span&gt;&lt;/font&gt;&lt;/p&gt;&lt;p style=&quot;box-sizing: border-box ; margin: 0px ; padding: 0px ; font-family: &amp;#34;helvetica neue&amp;#34; , &amp;#34;helvetica&amp;#34; , &amp;#34;pingfang sc&amp;#34; , &amp;#34;hiragino sans gb&amp;#34; , &amp;#34;microsoft yahei&amp;#34; , &amp;#34;\5 fae8f6f96c59ed1&amp;#34; , &amp;#34;arial&amp;#34; , sans-serif ; line-height: 1.2&quot;&gt;&lt;font color=&quot;#191919&quot;&gt;&lt;span style=&quot;font-size: 13.3333px&quot;&gt;(本地文件)&lt;/span&gt;&lt;/font&gt;&lt;/p&gt;" style="rounded=1;whiteSpace=wrap;html=1;" parent="1" vertex="1">
          <mxGeometry x="-666" y="-2140" width="120" height="40" as="geometry" />
        </mxCell>
        <mxCell id="pTYEqp93y5SNzYrnJhAv-71" style="edgeStyle=orthogonalEdgeStyle;rounded=0;orthogonalLoop=1;jettySize=auto;html=1;entryX=0.5;entryY=0;entryDx=0;entryDy=0;startArrow=none;startFill=0;endArrow=classic;endFill=1;" parent="1" source="pTYEqp93y5SNzYrnJhAv-5" target="pTYEqp93y5SNzYrnJhAv-69" edge="1">
          <mxGeometry relative="1" as="geometry" />
        </mxCell>
        <mxCell id="pTYEqp93y5SNzYrnJhAv-179" style="edgeStyle=orthogonalEdgeStyle;rounded=0;orthogonalLoop=1;jettySize=auto;html=1;startArrow=none;startFill=0;endArrow=classic;endFill=1;" parent="1" source="pTYEqp93y5SNzYrnJhAv-5" target="pTYEqp93y5SNzYrnJhAv-8" edge="1">
          <mxGeometry relative="1" as="geometry">
            <Array as="points">
              <mxPoint x="-486" y="-2065" />
              <mxPoint x="-486" y="-2140" />
              <mxPoint x="-258" y="-2140" />
            </Array>
          </mxGeometry>
        </mxCell>
        <mxCell id="pTYEqp93y5SNzYrnJhAv-5" value="联网" style="rhombus;whiteSpace=wrap;html=1;" parent="1" vertex="1">
          <mxGeometry x="-666" y="-2083" width="120" height="35" as="geometry" />
        </mxCell>
        <mxCell id="pTYEqp93y5SNzYrnJhAv-8" value="配网流程" style="shape=process;whiteSpace=wrap;html=1;backgroundOutline=1;" parent="1" vertex="1">
          <mxGeometry x="-303.25" y="-2123" width="90" height="40" as="geometry" />
        </mxCell>
        <mxCell id="pTYEqp93y5SNzYrnJhAv-94" style="edgeStyle=orthogonalEdgeStyle;rounded=0;orthogonalLoop=1;jettySize=auto;html=1;entryX=0.5;entryY=0;entryDx=0;entryDy=0;startArrow=none;startFill=0;endArrow=classic;endFill=1;" parent="1" source="pTYEqp93y5SNzYrnJhAv-88" target="pTYEqp93y5SNzYrnJhAv-90" edge="1">
          <mxGeometry relative="1" as="geometry">
            <mxPoint x="-605.9655172413793" y="-1790" as="sourcePoint" />
          </mxGeometry>
        </mxCell>
        <mxCell id="pTYEqp93y5SNzYrnJhAv-87" style="edgeStyle=orthogonalEdgeStyle;rounded=0;orthogonalLoop=1;jettySize=auto;html=1;entryX=0.5;entryY=0;entryDx=0;entryDy=0;startArrow=none;startFill=0;endArrow=classic;endFill=1;" parent="1" source="pTYEqp93y5SNzYrnJhAv-69" target="pTYEqp93y5SNzYrnJhAv-86" edge="1">
          <mxGeometry relative="1" as="geometry" />
        </mxCell>
        <mxCell id="pTYEqp93y5SNzYrnJhAv-69" value="循环" style="rhombus;whiteSpace=wrap;html=1;" parent="1" vertex="1">
          <mxGeometry x="-664.75" y="-2030" width="117.5" height="40" as="geometry" />
        </mxCell>
        <mxCell id="pTYEqp93y5SNzYrnJhAv-83" style="edgeStyle=orthogonalEdgeStyle;rounded=0;orthogonalLoop=1;jettySize=auto;html=1;entryX=0.5;entryY=0;entryDx=0;entryDy=0;startArrow=none;startFill=0;endArrow=classic;endFill=1;" parent="1" source="pTYEqp93y5SNzYrnJhAv-80" target="pTYEqp93y5SNzYrnJhAv-82" edge="1">
          <mxGeometry relative="1" as="geometry" />
        </mxCell>
        <mxCell id="pTYEqp93y5SNzYrnJhAv-101" style="edgeStyle=orthogonalEdgeStyle;rounded=0;orthogonalLoop=1;jettySize=auto;html=1;startArrow=none;startFill=0;endArrow=classic;endFill=1;" parent="1" source="pTYEqp93y5SNzYrnJhAv-80" edge="1">
          <mxGeometry relative="1" as="geometry">
            <mxPoint x="-716" y="-1750" as="targetPoint" />
          </mxGeometry>
        </mxCell>
        <mxCell id="pTYEqp93y5SNzYrnJhAv-80" value="[&quot;dev&quot;]==&quot;app&quot;&lt;br&gt;or&lt;br&gt;&quot;[&quot;dev&quot;]==&quot;ide&quot;" style="rhombus;whiteSpace=wrap;html=1;" parent="1" vertex="1">
          <mxGeometry x="-691" y="-1710" width="170" height="80" as="geometry" />
        </mxCell>
        <mxCell id="pTYEqp93y5SNzYrnJhAv-102" style="edgeStyle=orthogonalEdgeStyle;rounded=0;orthogonalLoop=1;jettySize=auto;html=1;startArrow=none;startFill=0;endArrow=classic;endFill=1;" parent="1" source="pTYEqp93y5SNzYrnJhAv-82" edge="1">
          <mxGeometry relative="1" as="geometry">
            <mxPoint x="-716" y="-1670" as="targetPoint" />
            <Array as="points">
              <mxPoint x="-606" y="-1530" />
              <mxPoint x="-716" y="-1530" />
            </Array>
          </mxGeometry>
        </mxCell>
        <mxCell id="pTYEqp93y5SNzYrnJhAv-127" style="edgeStyle=orthogonalEdgeStyle;rounded=0;orthogonalLoop=1;jettySize=auto;html=1;entryX=0.5;entryY=0;entryDx=0;entryDy=0;startArrow=none;startFill=0;endArrow=classic;endFill=1;" parent="1" source="pTYEqp93y5SNzYrnJhAv-82" target="pTYEqp93y5SNzYrnJhAv-110" edge="1">
          <mxGeometry relative="1" as="geometry" />
        </mxCell>
        <mxCell id="pTYEqp93y5SNzYrnJhAv-82" value="&lt;p style=&quot;box-sizing: border-box ; margin: 0px ; padding: 0px ; font-family: &amp;#34;helvetica neue&amp;#34; , &amp;#34;helvetica&amp;#34; , &amp;#34;pingfang sc&amp;#34; , &amp;#34;hiragino sans gb&amp;#34; , &amp;#34;microsoft yahei&amp;#34; , &amp;#34;\5 fae8f6f96c59ed1&amp;#34; , &amp;#34;arial&amp;#34; , sans-serif ; line-height: 1.2&quot;&gt;&lt;font color=&quot;#191919&quot;&gt;&lt;span style=&quot;font-size: 13.3333px&quot;&gt;发送TCP消息&lt;/span&gt;&lt;/font&gt;&lt;/p&gt;&lt;span style=&quot;color: rgb(25 , 25 , 25) ; font-family: &amp;#34;helvetica neue&amp;#34; , &amp;#34;helvetica&amp;#34; , &amp;#34;pingfang sc&amp;#34; , &amp;#34;hiragino sans gb&amp;#34; , &amp;#34;microsoft yahei&amp;#34; , &amp;#34;\5 fae8f6f96c59ed1&amp;#34; , &amp;#34;arial&amp;#34; , sans-serif ; font-size: 13.3333px&quot;&gt;端口：&lt;/span&gt;&lt;font color=&quot;#191919&quot; face=&quot;helvetica neue, helvetica, pingfang sc, hiragino sans gb, microsoft yahei, \5 fae8f6f96c59ed1, arial, sans-serif&quot;&gt;&lt;span style=&quot;font-size: 13.3333px&quot;&gt;57723&lt;/span&gt;&lt;/font&gt;&lt;p style=&quot;box-sizing: border-box ; margin: 0px ; padding: 0px ; font-family: &amp;#34;helvetica neue&amp;#34; , &amp;#34;helvetica&amp;#34; , &amp;#34;pingfang sc&amp;#34; , &amp;#34;hiragino sans gb&amp;#34; , &amp;#34;microsoft yahei&amp;#34; , &amp;#34;\5 fae8f6f96c59ed1&amp;#34; , &amp;#34;arial&amp;#34; , sans-serif ; line-height: 1.2&quot;&gt;&lt;font color=&quot;#191919&quot;&gt;&lt;span style=&quot;font-size: 13.3333px&quot;&gt;(设备+激活标志)&lt;/span&gt;&lt;/font&gt;&lt;font color=&quot;#191919&quot;&gt;&lt;span style=&quot;font-size: 13.3333px&quot;&gt;&lt;br&gt;&lt;/span&gt;&lt;/font&gt;&lt;/p&gt;" style="rounded=1;whiteSpace=wrap;html=1;" parent="1" vertex="1">
          <mxGeometry x="-666" y="-1610" width="120" height="60" as="geometry" />
        </mxCell>
        <mxCell id="pTYEqp93y5SNzYrnJhAv-99" style="edgeStyle=orthogonalEdgeStyle;rounded=0;orthogonalLoop=1;jettySize=auto;html=1;entryX=0.5;entryY=0;entryDx=0;entryDy=0;startArrow=none;startFill=0;endArrow=classic;endFill=1;" parent="1" source="pTYEqp93y5SNzYrnJhAv-86" target="pTYEqp93y5SNzYrnJhAv-97" edge="1">
          <mxGeometry relative="1" as="geometry" />
        </mxCell>
        <mxCell id="pTYEqp93y5SNzYrnJhAv-86" value="循环" style="rhombus;whiteSpace=wrap;html=1;" parent="1" vertex="1">
          <mxGeometry x="-664.75" y="-1970" width="117.5" height="40" as="geometry" />
        </mxCell>
        <mxCell id="pTYEqp93y5SNzYrnJhAv-88" value="&lt;p style=&quot;box-sizing: border-box ; margin: 0px ; padding: 0px ; font-family: &amp;#34;helvetica neue&amp;#34; , &amp;#34;helvetica&amp;#34; , &amp;#34;pingfang sc&amp;#34; , &amp;#34;hiragino sans gb&amp;#34; , &amp;#34;microsoft yahei&amp;#34; , &amp;#34;\5 fae8f6f96c59ed1&amp;#34; , &amp;#34;arial&amp;#34; , sans-serif ; line-height: 1.2&quot;&gt;&lt;font color=&quot;#191919&quot;&gt;&lt;span style=&quot;font-size: 13.3333px&quot;&gt;接收TCP消息&lt;/span&gt;&lt;/font&gt;&lt;/p&gt;&lt;p style=&quot;box-sizing: border-box ; margin: 0px ; padding: 0px ; font-family: &amp;#34;helvetica neue&amp;#34; , &amp;#34;helvetica&amp;#34; , &amp;#34;pingfang sc&amp;#34; , &amp;#34;hiragino sans gb&amp;#34; , &amp;#34;microsoft yahei&amp;#34; , &amp;#34;\5 fae8f6f96c59ed1&amp;#34; , &amp;#34;arial&amp;#34; , sans-serif ; line-height: 1.2&quot;&gt;&lt;span style=&quot;color: rgb(25 , 25 , 25) ; font-size: 13.3333px&quot;&gt;端口：57722&lt;/span&gt;&lt;/p&gt;&lt;p style=&quot;box-sizing: border-box ; margin: 0px ; padding: 0px ; font-family: &amp;#34;helvetica neue&amp;#34; , &amp;#34;helvetica&amp;#34; , &amp;#34;pingfang sc&amp;#34; , &amp;#34;hiragino sans gb&amp;#34; , &amp;#34;microsoft yahei&amp;#34; , &amp;#34;\5 fae8f6f96c59ed1&amp;#34; , &amp;#34;arial&amp;#34; , sans-serif ; line-height: 1.2&quot;&gt;&lt;font color=&quot;#191919&quot;&gt;&lt;span style=&quot;font-size: 13.3333px&quot;&gt;(等待设备连接)&lt;/span&gt;&lt;/font&gt;&lt;/p&gt;" style="rounded=1;whiteSpace=wrap;html=1;" parent="1" vertex="1">
          <mxGeometry x="-666" y="-1850" width="120" height="60" as="geometry" />
        </mxCell>
        <mxCell id="pTYEqp93y5SNzYrnJhAv-95" style="edgeStyle=orthogonalEdgeStyle;rounded=0;orthogonalLoop=1;jettySize=auto;html=1;entryX=0.5;entryY=0;entryDx=0;entryDy=0;startArrow=none;startFill=0;endArrow=classic;endFill=1;" parent="1" source="pTYEqp93y5SNzYrnJhAv-90" target="pTYEqp93y5SNzYrnJhAv-80" edge="1">
          <mxGeometry relative="1" as="geometry" />
        </mxCell>
        <mxCell id="pTYEqp93y5SNzYrnJhAv-96" style="edgeStyle=orthogonalEdgeStyle;rounded=0;orthogonalLoop=1;jettySize=auto;html=1;startArrow=none;startFill=0;endArrow=classic;endFill=1;entryX=0;entryY=0.5;entryDx=0;entryDy=0;" parent="1" source="pTYEqp93y5SNzYrnJhAv-90" target="pTYEqp93y5SNzYrnJhAv-86" edge="1">
          <mxGeometry relative="1" as="geometry">
            <mxPoint x="-686" y="-1950" as="targetPoint" />
            <Array as="points">
              <mxPoint x="-716" y="-1750" />
              <mxPoint x="-716" y="-1950" />
            </Array>
          </mxGeometry>
        </mxCell>
        <mxCell id="pTYEqp93y5SNzYrnJhAv-90" value="消息" style="rhombus;whiteSpace=wrap;html=1;" parent="1" vertex="1">
          <mxGeometry x="-664.75" y="-1770" width="117.5" height="40" as="geometry" />
        </mxCell>
        <mxCell id="pTYEqp93y5SNzYrnJhAv-100" style="edgeStyle=orthogonalEdgeStyle;rounded=0;orthogonalLoop=1;jettySize=auto;html=1;entryX=0.5;entryY=0;entryDx=0;entryDy=0;startArrow=none;startFill=0;endArrow=classic;endFill=1;" parent="1" source="pTYEqp93y5SNzYrnJhAv-97" target="pTYEqp93y5SNzYrnJhAv-88" edge="1">
          <mxGeometry relative="1" as="geometry" />
        </mxCell>
        <mxCell id="pTYEqp93y5SNzYrnJhAv-97" value="&lt;p style=&quot;box-sizing: border-box ; margin: 0px ; padding: 0px ; font-family: &amp;#34;helvetica neue&amp;#34; , &amp;#34;helvetica&amp;#34; , &amp;#34;pingfang sc&amp;#34; , &amp;#34;hiragino sans gb&amp;#34; , &amp;#34;microsoft yahei&amp;#34; , &amp;#34;\5 fae8f6f96c59ed1&amp;#34; , &amp;#34;arial&amp;#34; , sans-serif ; line-height: 1.2&quot;&gt;&lt;font color=&quot;#191919&quot;&gt;&lt;span style=&quot;font-size: 13.3333px&quot;&gt;读取激活标志&lt;/span&gt;&lt;/font&gt;&lt;/p&gt;&lt;p style=&quot;box-sizing: border-box ; margin: 0px ; padding: 0px ; font-family: &amp;#34;helvetica neue&amp;#34; , &amp;#34;helvetica&amp;#34; , &amp;#34;pingfang sc&amp;#34; , &amp;#34;hiragino sans gb&amp;#34; , &amp;#34;microsoft yahei&amp;#34; , &amp;#34;\5 fae8f6f96c59ed1&amp;#34; , &amp;#34;arial&amp;#34; , sans-serif ; line-height: 1.2&quot;&gt;&lt;font color=&quot;#191919&quot;&gt;&lt;span style=&quot;font-size: 13.3333px&quot;&gt;(本地文件)&lt;/span&gt;&lt;/font&gt;&lt;/p&gt;" style="rounded=1;whiteSpace=wrap;html=1;" parent="1" vertex="1">
          <mxGeometry x="-666" y="-1910" width="120" height="40" as="geometry" />
        </mxCell>
        <mxCell id="pTYEqp93y5SNzYrnJhAv-108" value="T" style="text;html=1;strokeColor=none;fillColor=none;align=center;verticalAlign=middle;whiteSpace=wrap;rounded=0;" parent="1" vertex="1">
          <mxGeometry x="-606" y="-1730" width="40" height="20" as="geometry" />
        </mxCell>
        <mxCell id="pTYEqp93y5SNzYrnJhAv-109" value="F" style="text;html=1;strokeColor=none;fillColor=none;align=center;verticalAlign=middle;whiteSpace=wrap;rounded=0;" parent="1" vertex="1">
          <mxGeometry x="-706" y="-1770" width="40" height="20" as="geometry" />
        </mxCell>
        <mxCell id="pTYEqp93y5SNzYrnJhAv-114" style="edgeStyle=orthogonalEdgeStyle;rounded=0;orthogonalLoop=1;jettySize=auto;html=1;entryX=0.5;entryY=0;entryDx=0;entryDy=0;startArrow=none;startFill=0;endArrow=classic;endFill=1;" parent="1" source="pTYEqp93y5SNzYrnJhAv-110" target="pTYEqp93y5SNzYrnJhAv-111" edge="1">
          <mxGeometry relative="1" as="geometry">
            <Array as="points">
              <mxPoint x="59" y="-1580" />
            </Array>
          </mxGeometry>
        </mxCell>
        <mxCell id="pTYEqp93y5SNzYrnJhAv-116" style="edgeStyle=orthogonalEdgeStyle;rounded=0;orthogonalLoop=1;jettySize=auto;html=1;startArrow=none;startFill=0;endArrow=classic;endFill=1;entryX=0.5;entryY=0;entryDx=0;entryDy=0;" parent="1" source="pTYEqp93y5SNzYrnJhAv-110" target="pTYEqp93y5SNzYrnJhAv-115" edge="1">
          <mxGeometry relative="1" as="geometry">
            <mxPoint x="-272" y="-1525" as="targetPoint" />
          </mxGeometry>
        </mxCell>
        <mxCell id="pTYEqp93y5SNzYrnJhAv-110" value="[&quot;dev&quot;]==&quot;app&quot;" style="rhombus;whiteSpace=wrap;html=1;" parent="1" vertex="1">
          <mxGeometry x="-347" y="-1610" width="150" height="60" as="geometry" />
        </mxCell>
        <mxCell id="pTYEqp93y5SNzYrnJhAv-163" style="edgeStyle=orthogonalEdgeStyle;rounded=0;orthogonalLoop=1;jettySize=auto;html=1;startArrow=none;startFill=0;endArrow=classic;endFill=1;" parent="1" source="pTYEqp93y5SNzYrnJhAv-111" target="pTYEqp93y5SNzYrnJhAv-160" edge="1">
          <mxGeometry relative="1" as="geometry" />
        </mxCell>
        <mxCell id="pTYEqp93y5SNzYrnJhAv-111" value="[&quot;dev&quot;]==&quot;ide&quot;" style="rhombus;whiteSpace=wrap;html=1;" parent="1" vertex="1">
          <mxGeometry x="-16" y="-1514" width="150" height="60" as="geometry" />
        </mxCell>
        <mxCell id="pTYEqp93y5SNzYrnJhAv-117" style="edgeStyle=orthogonalEdgeStyle;rounded=0;orthogonalLoop=1;jettySize=auto;html=1;startArrow=none;startFill=0;endArrow=classic;endFill=1;" parent="1" source="pTYEqp93y5SNzYrnJhAv-115" edge="1">
          <mxGeometry relative="1" as="geometry">
            <mxPoint x="-272" y="-1455" as="targetPoint" />
          </mxGeometry>
        </mxCell>
        <mxCell id="pTYEqp93y5SNzYrnJhAv-115" value="APP功能" style="shape=process;whiteSpace=wrap;html=1;backgroundOutline=1;fontStyle=1" parent="1" vertex="1">
          <mxGeometry x="-334" y="-1526" width="124" height="45" as="geometry" />
        </mxCell>
        <mxCell id="pTYEqp93y5SNzYrnJhAv-120" style="edgeStyle=orthogonalEdgeStyle;rounded=0;orthogonalLoop=1;jettySize=auto;html=1;entryX=0.5;entryY=0;entryDx=0;entryDy=0;startArrow=none;startFill=0;endArrow=classic;endFill=1;" parent="1" source="pTYEqp93y5SNzYrnJhAv-118" target="pTYEqp93y5SNzYrnJhAv-119" edge="1">
          <mxGeometry relative="1" as="geometry" />
        </mxCell>
        <mxCell id="pTYEqp93y5SNzYrnJhAv-118" value="循环" style="rhombus;whiteSpace=wrap;html=1;" parent="1" vertex="1">
          <mxGeometry x="-330.75" y="-1455" width="117.5" height="40" as="geometry" />
        </mxCell>
        <mxCell id="pTYEqp93y5SNzYrnJhAv-122" style="edgeStyle=orthogonalEdgeStyle;rounded=0;orthogonalLoop=1;jettySize=auto;html=1;entryX=0.5;entryY=0;entryDx=0;entryDy=0;startArrow=none;startFill=0;endArrow=classic;endFill=1;" parent="1" source="pTYEqp93y5SNzYrnJhAv-119" target="pTYEqp93y5SNzYrnJhAv-121" edge="1">
          <mxGeometry relative="1" as="geometry" />
        </mxCell>
        <mxCell id="pTYEqp93y5SNzYrnJhAv-119" value="&lt;p style=&quot;box-sizing: border-box ; margin: 0px ; padding: 0px ; font-family: &amp;#34;helvetica neue&amp;#34; , &amp;#34;helvetica&amp;#34; , &amp;#34;pingfang sc&amp;#34; , &amp;#34;hiragino sans gb&amp;#34; , &amp;#34;microsoft yahei&amp;#34; , &amp;#34;\5 fae8f6f96c59ed1&amp;#34; , &amp;#34;arial&amp;#34; , sans-serif ; line-height: 1.2&quot;&gt;&lt;font color=&quot;#191919&quot;&gt;&lt;span style=&quot;font-size: 13.3333px&quot;&gt;接收TCP消息&lt;/span&gt;&lt;/font&gt;&lt;/p&gt;&lt;p style=&quot;box-sizing: border-box ; margin: 0px ; padding: 0px ; font-family: &amp;#34;helvetica neue&amp;#34; , &amp;#34;helvetica&amp;#34; , &amp;#34;pingfang sc&amp;#34; , &amp;#34;hiragino sans gb&amp;#34; , &amp;#34;microsoft yahei&amp;#34; , &amp;#34;\5 fae8f6f96c59ed1&amp;#34; , &amp;#34;arial&amp;#34; , sans-serif ; line-height: 1.2&quot;&gt;&lt;span style=&quot;color: rgb(25 , 25 , 25) ; font-size: 13.3333px&quot;&gt;端口：57725&lt;/span&gt;&lt;/p&gt;&lt;p style=&quot;box-sizing: border-box ; margin: 0px ; padding: 0px ; font-family: &amp;#34;helvetica neue&amp;#34; , &amp;#34;helvetica&amp;#34; , &amp;#34;pingfang sc&amp;#34; , &amp;#34;hiragino sans gb&amp;#34; , &amp;#34;microsoft yahei&amp;#34; , &amp;#34;\5 fae8f6f96c59ed1&amp;#34; , &amp;#34;arial&amp;#34; , sans-serif ; line-height: 1.2&quot;&gt;&lt;font color=&quot;#191919&quot;&gt;&lt;span style=&quot;font-size: 13.3333px&quot;&gt;(APP指令)&lt;/span&gt;&lt;/font&gt;&lt;/p&gt;" style="rounded=1;whiteSpace=wrap;html=1;" parent="1" vertex="1">
          <mxGeometry x="-332" y="-1385" width="120" height="60" as="geometry" />
        </mxCell>
        <mxCell id="pTYEqp93y5SNzYrnJhAv-124" style="edgeStyle=orthogonalEdgeStyle;rounded=0;orthogonalLoop=1;jettySize=auto;html=1;startArrow=none;startFill=0;endArrow=classic;endFill=1;" parent="1" source="pTYEqp93y5SNzYrnJhAv-121" target="pTYEqp93y5SNzYrnJhAv-123" edge="1">
          <mxGeometry relative="1" as="geometry" />
        </mxCell>
        <mxCell id="pTYEqp93y5SNzYrnJhAv-138" style="edgeStyle=orthogonalEdgeStyle;rounded=0;orthogonalLoop=1;jettySize=auto;html=1;entryX=0.5;entryY=0;entryDx=0;entryDy=0;startArrow=none;startFill=0;endArrow=classic;endFill=1;" parent="1" source="pTYEqp93y5SNzYrnJhAv-121" target="pTYEqp93y5SNzYrnJhAv-133" edge="1">
          <mxGeometry relative="1" as="geometry" />
        </mxCell>
        <mxCell id="pTYEqp93y5SNzYrnJhAv-121" value="消息==激活" style="rhombus;whiteSpace=wrap;html=1;" parent="1" vertex="1">
          <mxGeometry x="-330.75" y="-1295" width="117.5" height="40" as="geometry" />
        </mxCell>
        <mxCell id="pTYEqp93y5SNzYrnJhAv-131" style="edgeStyle=orthogonalEdgeStyle;rounded=0;orthogonalLoop=1;jettySize=auto;html=1;startArrow=none;startFill=0;endArrow=classic;endFill=1;entryX=0.074;entryY=0.475;entryDx=0;entryDy=0;entryPerimeter=0;" parent="1" source="pTYEqp93y5SNzYrnJhAv-123" target="pTYEqp93y5SNzYrnJhAv-118" edge="1">
          <mxGeometry relative="1" as="geometry">
            <mxPoint x="-426" y="-1430" as="targetPoint" />
            <Array as="points">
              <mxPoint x="-506" y="-1275" />
              <mxPoint x="-506" y="-1436" />
            </Array>
          </mxGeometry>
        </mxCell>
        <mxCell id="pTYEqp93y5SNzYrnJhAv-123" value="&lt;p style=&quot;box-sizing: border-box ; margin: 0px ; padding: 0px ; font-family: &amp;#34;helvetica neue&amp;#34; , &amp;#34;helvetica&amp;#34; , &amp;#34;pingfang sc&amp;#34; , &amp;#34;hiragino sans gb&amp;#34; , &amp;#34;microsoft yahei&amp;#34; , &amp;#34;\5 fae8f6f96c59ed1&amp;#34; , &amp;#34;arial&amp;#34; , sans-serif ; line-height: 1.2&quot;&gt;&lt;font color=&quot;#191919&quot;&gt;&lt;span style=&quot;font-size: 13.3333px&quot;&gt;改写激活标志&lt;/span&gt;&lt;/font&gt;&lt;/p&gt;" style="rounded=1;whiteSpace=wrap;html=1;" parent="1" vertex="1">
          <mxGeometry x="-456" y="-1293.75" width="100" height="37.5" as="geometry" />
        </mxCell>
        <mxCell id="pTYEqp93y5SNzYrnJhAv-41" value="&lt;span style=&quot;color: rgb(25 , 25 , 25) ; font-size: 13.3333px&quot;&gt;break&lt;/span&gt;" style="rounded=0;whiteSpace=wrap;html=1;fillColor=#ffffff;gradientColor=none;" parent="1" vertex="1">
          <mxGeometry x="-526" y="-1590" width="50" height="20" as="geometry" />
        </mxCell>
        <mxCell id="pTYEqp93y5SNzYrnJhAv-136" style="edgeStyle=orthogonalEdgeStyle;rounded=0;orthogonalLoop=1;jettySize=auto;html=1;startArrow=none;startFill=0;endArrow=classic;endFill=1;" parent="1" source="pTYEqp93y5SNzYrnJhAv-133" target="pTYEqp93y5SNzYrnJhAv-135" edge="1">
          <mxGeometry relative="1" as="geometry" />
        </mxCell>
        <mxCell id="pTYEqp93y5SNzYrnJhAv-142" style="edgeStyle=orthogonalEdgeStyle;rounded=0;orthogonalLoop=1;jettySize=auto;html=1;entryX=0.5;entryY=0;entryDx=0;entryDy=0;startArrow=none;startFill=0;endArrow=classic;endFill=1;" parent="1" source="pTYEqp93y5SNzYrnJhAv-133" target="pTYEqp93y5SNzYrnJhAv-140" edge="1">
          <mxGeometry relative="1" as="geometry" />
        </mxCell>
        <mxCell id="pTYEqp93y5SNzYrnJhAv-133" value="消息==a1~a10" style="rhombus;whiteSpace=wrap;html=1;" parent="1" vertex="1">
          <mxGeometry x="-330.75" y="-1230" width="117.5" height="40" as="geometry" />
        </mxCell>
        <mxCell id="pTYEqp93y5SNzYrnJhAv-139" style="edgeStyle=orthogonalEdgeStyle;rounded=0;orthogonalLoop=1;jettySize=auto;html=1;startArrow=none;startFill=0;endArrow=none;endFill=0;" parent="1" source="pTYEqp93y5SNzYrnJhAv-135" edge="1">
          <mxGeometry relative="1" as="geometry">
            <mxPoint x="-506" y="-1290" as="targetPoint" />
            <Array as="points">
              <mxPoint x="-506" y="-1210" />
              <mxPoint x="-506" y="-1280" />
            </Array>
          </mxGeometry>
        </mxCell>
        <mxCell id="pTYEqp93y5SNzYrnJhAv-135" value="&lt;p style=&quot;box-sizing: border-box ; margin: 0px ; padding: 0px ; font-family: &amp;#34;helvetica neue&amp;#34; , &amp;#34;helvetica&amp;#34; , &amp;#34;pingfang sc&amp;#34; , &amp;#34;hiragino sans gb&amp;#34; , &amp;#34;microsoft yahei&amp;#34; , &amp;#34;\5 fae8f6f96c59ed1&amp;#34; , &amp;#34;arial&amp;#34; , sans-serif ; line-height: 1.2&quot;&gt;&lt;font color=&quot;#191919&quot;&gt;&lt;span style=&quot;font-size: 13.3333px&quot;&gt;执行遥控动作&lt;/span&gt;&lt;/font&gt;&lt;/p&gt;" style="rounded=1;whiteSpace=wrap;html=1;" parent="1" vertex="1">
          <mxGeometry x="-456" y="-1228.75" width="100" height="37.5" as="geometry" />
        </mxCell>
        <mxCell id="pTYEqp93y5SNzYrnJhAv-144" style="edgeStyle=orthogonalEdgeStyle;rounded=0;orthogonalLoop=1;jettySize=auto;html=1;entryX=0.5;entryY=0;entryDx=0;entryDy=0;startArrow=none;startFill=0;endArrow=classic;endFill=1;" parent="1" source="pTYEqp93y5SNzYrnJhAv-140" target="pTYEqp93y5SNzYrnJhAv-141" edge="1">
          <mxGeometry relative="1" as="geometry" />
        </mxCell>
        <mxCell id="pTYEqp93y5SNzYrnJhAv-152" style="edgeStyle=orthogonalEdgeStyle;rounded=0;orthogonalLoop=1;jettySize=auto;html=1;entryX=1;entryY=0.5;entryDx=0;entryDy=0;startArrow=none;startFill=0;endArrow=classic;endFill=1;" parent="1" source="pTYEqp93y5SNzYrnJhAv-140" target="pTYEqp93y5SNzYrnJhAv-151" edge="1">
          <mxGeometry relative="1" as="geometry" />
        </mxCell>
        <mxCell id="pTYEqp93y5SNzYrnJhAv-140" value="消息==eraseap" style="rhombus;whiteSpace=wrap;html=1;" parent="1" vertex="1">
          <mxGeometry x="-330.75" y="-1163" width="117.5" height="40" as="geometry" />
        </mxCell>
        <mxCell id="pTYEqp93y5SNzYrnJhAv-145" style="edgeStyle=orthogonalEdgeStyle;rounded=0;orthogonalLoop=1;jettySize=auto;html=1;startArrow=none;startFill=0;endArrow=none;endFill=0;" parent="1" source="pTYEqp93y5SNzYrnJhAv-141" edge="1">
          <mxGeometry relative="1" as="geometry">
            <mxPoint x="-506" y="-1260" as="targetPoint" />
            <Array as="points">
              <mxPoint x="-272" y="-1040" />
              <mxPoint x="-506" y="-1040" />
              <mxPoint x="-506" y="-1210" />
            </Array>
          </mxGeometry>
        </mxCell>
        <mxCell id="pTYEqp93y5SNzYrnJhAv-156" style="edgeStyle=orthogonalEdgeStyle;rounded=0;orthogonalLoop=1;jettySize=auto;html=1;startArrow=none;startFill=0;endArrow=classic;endFill=1;" parent="1" source="pTYEqp93y5SNzYrnJhAv-157" edge="1">
          <mxGeometry relative="1" as="geometry">
            <mxPoint x="-666" y="-2010" as="targetPoint" />
            <Array as="points">
              <mxPoint x="-126" y="-1080" />
              <mxPoint x="-126" y="-990" />
              <mxPoint x="-766" y="-990" />
              <mxPoint x="-766" y="-2010" />
            </Array>
          </mxGeometry>
        </mxCell>
        <mxCell id="pTYEqp93y5SNzYrnJhAv-141" value="消息==break" style="rhombus;whiteSpace=wrap;html=1;" parent="1" vertex="1">
          <mxGeometry x="-330.75" y="-1100" width="117.5" height="40" as="geometry" />
        </mxCell>
        <mxCell id="pTYEqp93y5SNzYrnJhAv-147" value="F" style="text;html=1;strokeColor=none;fillColor=none;align=center;verticalAlign=middle;whiteSpace=wrap;rounded=0;" parent="1" vertex="1">
          <mxGeometry x="-276" y="-1255" width="40" height="20" as="geometry" />
        </mxCell>
        <mxCell id="pTYEqp93y5SNzYrnJhAv-148" value="F" style="text;html=1;strokeColor=none;fillColor=none;align=center;verticalAlign=middle;whiteSpace=wrap;rounded=0;" parent="1" vertex="1">
          <mxGeometry x="-276" y="-1183" width="40" height="20" as="geometry" />
        </mxCell>
        <mxCell id="pTYEqp93y5SNzYrnJhAv-149" value="F" style="text;html=1;strokeColor=none;fillColor=none;align=center;verticalAlign=middle;whiteSpace=wrap;rounded=0;" parent="1" vertex="1">
          <mxGeometry x="-276" y="-1123" width="40" height="20" as="geometry" />
        </mxCell>
        <mxCell id="pTYEqp93y5SNzYrnJhAv-150" value="F" style="text;html=1;strokeColor=none;fillColor=none;align=center;verticalAlign=middle;whiteSpace=wrap;rounded=0;" parent="1" vertex="1">
          <mxGeometry x="-276" y="-1060" width="40" height="20" as="geometry" />
        </mxCell>
        <mxCell id="pTYEqp93y5SNzYrnJhAv-154" style="edgeStyle=orthogonalEdgeStyle;rounded=0;orthogonalLoop=1;jettySize=auto;html=1;startArrow=none;startFill=0;endArrow=none;endFill=0;" parent="1" source="pTYEqp93y5SNzYrnJhAv-151" edge="1">
          <mxGeometry relative="1" as="geometry">
            <mxPoint x="-506" y="-1143" as="targetPoint" />
            <Array as="points">
              <mxPoint x="-461" y="-1143" />
            </Array>
          </mxGeometry>
        </mxCell>
        <mxCell id="pTYEqp93y5SNzYrnJhAv-151" value="&lt;p style=&quot;box-sizing: border-box ; margin: 0px ; padding: 0px ; font-family: &amp;#34;helvetica neue&amp;#34; , &amp;#34;helvetica&amp;#34; , &amp;#34;pingfang sc&amp;#34; , &amp;#34;hiragino sans gb&amp;#34; , &amp;#34;microsoft yahei&amp;#34; , &amp;#34;\5 fae8f6f96c59ed1&amp;#34; , &amp;#34;arial&amp;#34; , sans-serif ; line-height: 1.2&quot;&gt;&lt;font color=&quot;#191919&quot;&gt;&lt;span style=&quot;font-size: 13.3333px&quot;&gt;清除配网信息&lt;/span&gt;&lt;/font&gt;&lt;/p&gt;" style="rounded=1;whiteSpace=wrap;html=1;" parent="1" vertex="1">
          <mxGeometry x="-456" y="-1161.75" width="100" height="37.5" as="geometry" />
        </mxCell>
        <mxCell id="pTYEqp93y5SNzYrnJhAv-157" value="&lt;span style=&quot;color: rgb(25 , 25 , 25) ; font-size: 13.3333px&quot;&gt;break&lt;/span&gt;" style="rounded=0;whiteSpace=wrap;html=1;fillColor=#ffffff;gradientColor=none;" parent="1" vertex="1">
          <mxGeometry x="-192" y="-1090" width="50" height="20" as="geometry" />
        </mxCell>
        <mxCell id="pTYEqp93y5SNzYrnJhAv-158" style="edgeStyle=orthogonalEdgeStyle;rounded=0;orthogonalLoop=1;jettySize=auto;html=1;startArrow=none;startFill=0;endArrow=none;endFill=0;" parent="1" source="pTYEqp93y5SNzYrnJhAv-141" target="pTYEqp93y5SNzYrnJhAv-157" edge="1">
          <mxGeometry relative="1" as="geometry">
            <mxPoint x="-746" y="-990" as="targetPoint" />
            <mxPoint x="-213.2500000000009" y="-1079.9999999999998" as="sourcePoint" />
            <Array as="points" />
          </mxGeometry>
        </mxCell>
        <mxCell id="pTYEqp93y5SNzYrnJhAv-159" value="APP断开连接" style="text;html=1;strokeColor=none;fillColor=none;align=center;verticalAlign=middle;whiteSpace=wrap;rounded=0;" parent="1" vertex="1">
          <mxGeometry x="-207.5" y="-1111" width="81" height="20" as="geometry" />
        </mxCell>
        <mxCell id="pTYEqp93y5SNzYrnJhAv-160" value="APP功能" style="shape=process;whiteSpace=wrap;html=1;backgroundOutline=1;fontStyle=1" parent="1" vertex="1">
          <mxGeometry x="-3" y="-1430" width="124" height="45" as="geometry" />
        </mxCell>
        <mxCell id="pTYEqp93y5SNzYrnJhAv-165" value="F" style="text;html=1;strokeColor=none;fillColor=none;align=center;verticalAlign=middle;whiteSpace=wrap;rounded=0;" parent="1" vertex="1">
          <mxGeometry x="-210" y="-1600" width="40" height="20" as="geometry" />
        </mxCell>
        <mxCell id="pTYEqp93y5SNzYrnJhAv-172" style="edgeStyle=orthogonalEdgeStyle;rounded=0;orthogonalLoop=1;jettySize=auto;html=1;entryX=0.5;entryY=0;entryDx=0;entryDy=0;startArrow=none;startFill=0;endArrow=classic;endFill=1;" parent="1" source="pTYEqp93y5SNzYrnJhAv-170" target="kPTJGmgoszfXjRoP_3Vx-1" edge="1">
          <mxGeometry relative="1" as="geometry" />
        </mxCell>
        <mxCell id="pTYEqp93y5SNzYrnJhAv-170" value="循环" style="rhombus;whiteSpace=wrap;html=1;" parent="1" vertex="1">
          <mxGeometry x="-1068.81" y="-2130" width="117.5" height="40" as="geometry" />
        </mxCell>
        <mxCell id="pTYEqp93y5SNzYrnJhAv-180" value="&lt;span style=&quot;color: rgb(25 , 25 , 25) ; font-size: 13.3333px&quot;&gt;Doggie发布在线状态&lt;/span&gt;" style="shape=process;whiteSpace=wrap;html=1;backgroundOutline=1;" parent="1" vertex="1">
          <mxGeometry x="-1091.46" y="-2200" width="162.81" height="40" as="geometry" />
        </mxCell>
        <mxCell id="pTYEqp93y5SNzYrnJhAv-182" style="edgeStyle=orthogonalEdgeStyle;rounded=0;orthogonalLoop=1;jettySize=auto;html=1;entryX=0.5;entryY=0;entryDx=0;entryDy=0;startArrow=none;startFill=0;endArrow=classic;endFill=1;" parent="1" source="pTYEqp93y5SNzYrnJhAv-181" target="pTYEqp93y5SNzYrnJhAv-3" edge="1">
          <mxGeometry relative="1" as="geometry" />
        </mxCell>
        <mxCell id="pTYEqp93y5SNzYrnJhAv-181" value="&lt;font color=&quot;#191919&quot;&gt;&lt;span style=&quot;font-size: 13.3333px&quot;&gt;Doggie无线控制&lt;/span&gt;&lt;/font&gt;" style="shape=process;whiteSpace=wrap;html=1;backgroundOutline=1;" parent="1" vertex="1">
          <mxGeometry x="-671" y="-2200" width="130" height="40" as="geometry" />
        </mxCell>
        <mxCell id="pTYEqp93y5SNzYrnJhAv-185" value="F" style="text;html=1;strokeColor=none;fillColor=none;align=center;verticalAlign=middle;whiteSpace=wrap;rounded=0;" parent="1" vertex="1">
          <mxGeometry x="-541" y="-2083" width="40" height="20" as="geometry" />
        </mxCell>
      </root>
    </mxGraphModel>
  </diagram>
</mxfile>
